<?xml version="1.0" encoding="utf-8"?>
<!-- Svg Vector Icons : http://www.onlinewebfonts.com/icon -->
<!DOCTYPE svg PUBLIC "-//W3C//DTD SVG 1.1//EN" "http://www.w3.org/Graphics/SVG/1.1/DTD/svg11.dtd">
<svg version="1.1" xmlns="http://www.w3.org/2000/svg" xmlns:xlink="http://www.w3.org/1999/xlink" x="0px" y="0px" viewBox="0 0 1000 1000" enable-background="new 0 0 1000 1000" xml:space="preserve">
<metadata> Svg Vector Icons : http://www.onlinewebfonts.com/icon </metadata>
<g><g transform="translate(0.000000,511.000000) scale(0.100000,-0.100000)"><path d="M5043,4995c-100.2-30.7-165.7-79.8-828.4-625.9c-670.9-550.2-697.5-582.9-697.5-814.1c2.1-276.1,208.6-478.6,486.8-480.7c159.6,0,227.1,32.7,462.3,225c110.4,90,206.6,163.6,214.8,163.6c6.1,0,12.3-499.1,12.3-1108.6V1243.7l49.1-102.3c81.8-180,241.3-280.2,441.8-280.2c198.4-2,360,100.2,441.8,280.2l49.1,102.3v1110.7c0,609.5,6.1,1108.6,12.3,1108.6c6.1,0,102.3-73.6,214.8-165.7c235.2-190.2,302.7-222.9,458.2-222.9c278.2,0,486.8,206.6,488.9,482.7c0,235.2-20.5,257.7-736.4,842.7c-347.7,284.3-666.8,535.9-711.8,558.4C5308.9,5007.3,5141.1,5025.7,5043,4995z"/><path d="M1852.1,570.8c-98.2-34.8-220.9-145.2-272.1-243.4c-63.4-118.6-63.4-319.1,0-435.7c55.2-108.4,184.1-218.8,288.4-249.5c112.5-34.8,6150.6-34.8,6263.1,0c104.3,30.7,233.2,141.1,288.4,249.5c63.4,116.6,63.4,317,0,433.6c-55.2,108.4-184.1,218.8-288.4,249.5C8015,611.7,1950.3,607.6,1852.1,570.8z"/><path d="M5055.2-656.5c-132.9-36.8-239.3-124.8-304.8-257.7l-57.3-110.5v-1110.7c0-611.6-6.1-1110.7-12.3-1110.7c-8.2,0-104.3,73.6-214.8,163.6c-235.2,192.3-302.7,225-464.3,225c-239.3,0-429.5-155.4-478.6-394.8c-28.6-139.1,14.3-300.7,110.5-409.1c94.1-102.3,1257.9-1049.3,1345.9-1092.3c106.4-53.2,315-47,419.3,10.2c45,24.6,366.1,276.1,715.9,560.4c713.9,585,734.3,607.5,734.3,842.7c-2.1,276.1-210.7,482.7-488.9,482.7c-155.4,0-231.1-36.8-462.2-225c-108.4-90-204.6-163.6-210.7-163.6c-6.2,0-12.3,499.1-12.3,1110.7v1108.6l-49.1,102.3C5519.5-699.4,5290.5-593.1,5055.2-656.5z"/></g></g>
</svg>